<svg version="1.1" viewBox="0.0 0.0 1800.0 500.0" fill="none" stroke="none" stroke-linecap="square" stroke-miterlimit="10" xmlns:xlink="http://www.w3.org/1999/xlink" xmlns="http://www.w3.org/2000/svg"><clipPath id="p.0"><path d="m0 0l1800.0 0l0 500.0l-1800.0 0l0 -500.0z" clip-rule="nonzero"/></clipPath><g clip-path="url(#p.0)"><path fill="#000000" fill-opacity="0.0" d="m0 0l1800.0 0l0 500.0l-1800.0 0z" fill-rule="evenodd"/><path fill="#000000" d="m0.015748031 -0.020997375l1800.0 0l0 500.0l-1800.0 0z" fill-rule="evenodd"/><path fill="#ffffff" d="m46.125984 241.2441l0 0c0 -115.562325 93.68177 -209.2441 209.24408 -209.2441l0 0c55.49498 0 108.71706 22.045296 147.95793 61.28618c39.240875 39.240875 61.286163 92.46294 61.286163 147.95792l0 0c0 115.56233 -93.68176 209.2441 -209.2441 209.2441l0 0c-115.56232 0 -209.24408 -93.68176 -209.24408 -209.2441z" fill-rule="evenodd"/><path fill="#000000" fill-opacity="0.0" d="m38.125984 35.622047l213.82678 0l0 330.96063l-213.82678 0z" fill-rule="evenodd"/><path fill="#000000" d="m247.45412 160.96579l-78.65625 0l0 203.65625l-37.671875 0l0 -203.65625l-79.00001 0l0 -32.999992l195.32812 0l0 32.999992z" fill-rule="nonzero"/><path fill="#000000" fill-opacity="0.0" d="m203.27559 35.622047l323.84253 0l0 330.96063l-323.84253 0z" fill-rule="evenodd"/><path fill="#000000" d="m437.93185 364.62204l0 -170.32812l-70.328125 129.0l-20.65625 0l-70.671875 -129.0l0 170.32812l-37.32814 0l0 -236.65625l40.000015 0l78.328125 144.65625l78.328125 -144.65625l40.0 0l0 236.65625l-37.671875 0z" fill-rule="nonzero"/><path fill="#ffffff" d="m494.73883 99.779526l1247.5591 0l0 199.43306l-1247.5591 0z" fill-rule="evenodd"/><path fill="#000000" d="m617.71484 162.86168l-36.3125 0l0 94.23439l-21.921875 0l0 -94.23439l-36.328125 0l0 -19.359375l94.5625 0l0 19.359375zm14.086914 94.23439l0 -113.593765l22.078125 0l0 113.593765l-22.078125 0zm78.07257 -113.593765l19.53125 0l43.1875 113.593765l-22.71875 0l-10.5625 -28.312515l-39.671875 0l-10.40625 28.312515l-22.71875 0l43.359375 -113.593765zm25.4375 69.75l-15.671875 -44.640625l-16.328125 44.640625l32.0 0zm128.64502 31.046875q-13.59375 13.593765 -31.671875 13.593765q-11.203125 0 -21.046875 -4.4687653q-9.84375 -4.484375 -17.125 -12.328125q-7.28125 -7.84375 -11.515625 -18.484375q-4.234375 -10.640625 -4.234375 -22.953125q0 -11.6875 4.234375 -22.0q4.234375 -10.328125 11.671875 -18.078125q7.453125 -7.765625 17.53125 -12.328125q10.078125 -4.5625 21.921875 -4.5625q16.0 0 27.4375 6.734375q11.4375 6.71875 17.203125 18.078125l-16.484375 12.15625q-4.328125 -8.484375 -12.09375 -12.953125q-7.75 -4.484375 -16.859375 -4.484375q-7.203125 0 -13.203125 3.046875q-6.0 3.03125 -10.25 8.3125q-4.234375 5.28125 -6.5625 12.15625q-2.3125 6.875 -2.3125 14.5625q0 8.0 2.5625 14.96875q2.5625 6.953125 7.03125 12.078125q4.484375 5.109375 10.640625 8.078125q6.171875 2.953125 13.359375 2.953125q16.484375 0 29.765625 -15.515625l0 -8.0l-22.875 0l0 -16.171875l41.109375 0l0 58.406265l-18.234375 0l0 -12.79689zm85.59381 13.593765q-12.46875 0 -22.640625 -4.8750153q-10.15625 -4.875 -17.4375 -12.953125q-7.28125 -8.09375 -11.28125 -18.484375q-4.0 -10.40625 -4.0 -21.28125q0 -11.359375 4.234375 -21.75q4.25 -10.40625 11.6875 -18.40625q7.4375 -8.0 17.671875 -12.71875q10.25 -4.734375 22.25 -4.734375q12.328125 0 22.484375 5.046875q10.15625 5.046875 17.359375 13.203125q7.203125 8.15625 11.203125 18.5625q4.0 10.390625 4.0 21.109375q0 11.359375 -4.171875 21.6875q-4.15625 10.3125 -11.515625 18.234375q-7.359375 7.921875 -17.609375 12.640625q-10.234375 4.7187653 -22.234375 4.7187653zm-32.953125 -57.593765q0 7.359375 2.234375 14.234375q2.25 6.875 6.484375 12.15625q4.234375 5.28125 10.390625 8.484375q6.171875 3.203125 14.015625 3.203125q8.0 0 14.15625 -3.28125q6.15625 -3.28125 10.390625 -8.71875q4.25 -5.4375 6.40625 -12.234375q2.15625 -6.8125 2.15625 -13.84375q0 -7.359375 -2.328125 -14.234375q-2.3125 -6.890625 -6.546875 -12.171875q-4.234375 -5.28125 -10.40625 -8.390625q-6.15625 -3.125 -13.828125 -3.125q-8.0 0 -14.25 3.28125q-6.234375 3.28125 -10.390625 8.640625q-4.15625 5.359375 -6.328125 12.15625q-2.15625 6.796875 -2.15625 13.84375zm236.4851 56.79689l0 -75.20314l-29.28125 56.0l-12.0 0l-29.28125 -56.0l0 75.20314l-22.078125 0l0 -113.593765l23.671875 0l33.609375 64.640625l33.921875 -64.640625l23.515625 0l0 113.593765l-22.078125 0zm94.22827 0.796875q-12.46875 0 -22.640625 -4.8750153q-10.15625 -4.875 -17.4375 -12.953125q-7.28125 -8.09375 -11.28125 -18.484375q-4.0 -10.40625 -4.0 -21.28125q0 -11.359375 4.234375 -21.75q4.25 -10.40625 11.6875 -18.40625q7.4375 -8.0 17.671875 -12.71875q10.25 -4.734375 22.25 -4.734375q12.328125 0 22.484375 5.046875q10.15625 5.046875 17.359375 13.203125q7.203125 8.15625 11.203125 18.5625q4.0 10.390625 4.0 21.109375q0 11.359375 -4.171875 21.6875q-4.15625 10.3125 -11.515625 18.234375q-7.359375 7.921875 -17.609375 12.640625q-10.234375 4.7187653 -22.234375 4.7187653zm-32.953125 -57.593765q0 7.359375 2.234375 14.234375q2.25 6.875 6.484375 12.15625q4.234375 5.28125 10.390625 8.484375q6.171875 3.203125 14.015625 3.203125q8.0 0 14.15625 -3.28125q6.15625 -3.28125 10.390625 -8.71875q4.25 -5.4375 6.40625 -12.234375q2.15625 -6.8125 2.15625 -13.84375q0 -7.359375 -2.328125 -14.234375q-2.3125 -6.890625 -6.546875 -12.171875q-4.234375 -5.28125 -10.40625 -8.390625q-6.15625 -3.125 -13.828125 -3.125q-8.0 0 -14.25 3.28125q-6.234375 3.28125 -10.390625 8.640625q-4.15625 5.359375 -6.328125 12.15625q-2.15625 6.796875 -2.15625 13.84375zm105.44446 56.79689l0 -113.593765l50.234375 0q7.84375 0 14.484375 3.28125q6.640625 3.265625 11.4375 8.640625q4.796875 5.359375 7.515625 12.15625q2.71875 6.796875 2.71875 13.671875q0 11.046875 -5.515625 20.09375q-5.515625 9.03125 -14.953125 13.03125l25.921875 42.718765l-24.8125 0l-23.1875 -38.07814l-21.765625 0l0 38.07814l-22.078125 0zm22.078125 -57.437515l27.671875 0q3.046875 0 5.6875 -1.4375q2.640625 -1.4375 4.5625 -3.921875q1.921875 -2.484375 3.03125 -5.84375q1.125 -3.359375 1.125 -7.203125q0 -4.0 -1.28125 -7.359375q-1.28125 -3.359375 -3.4375 -5.828125q-2.15625 -2.484375 -4.96875 -3.84375q-2.796875 -1.359375 -5.671875 -1.359375l-26.71875 0l0 36.796875zm116.6344 -56.15625l19.53125 0l43.1875 113.593765l-22.71875 0l-10.5625 -28.312515l-39.671875 0l-10.40625 28.312515l-22.71875 0l43.359375 -113.593765zm25.4375 69.75l-15.671875 -44.640625l-16.328125 44.640625l32.0 0zm128.64514 24.484375l0 19.35939l-78.875 0l0 -113.593765l77.4375 0l0 19.359375l-55.359375 0l0 27.359375l47.84375 0l0 17.921875l-47.84375 0l0 29.59375l56.796875 0zm84.95691 -64.484375q-1.109375 -1.109375 -4.078125 -3.03125q-2.953125 -1.921875 -7.203125 -3.765625q-4.234375 -1.84375 -9.203125 -3.125q-4.953125 -1.28125 -10.078125 -1.28125q-9.109375 0 -13.59375 3.375q-4.484375 3.359375 -4.484375 9.4375q0 3.515625 1.671875 5.84375q1.6875 2.3125 4.890625 4.078125q3.203125 1.75 8.078125 3.1875q4.890625 1.4375 11.28125 3.046875q8.328125 2.234375 15.125 4.796875q6.796875 2.5625 11.515625 6.40625q4.71875 3.828125 7.28125 9.203125q2.5625 5.359375 2.5625 13.1875q0 9.125 -3.4375 15.609375q-3.4375 6.46875 -9.28125 10.46875q-5.84375 4.0 -13.453125 5.8437653q-7.59375 1.84375 -15.90625 1.84375q-12.796875 0 -25.28125 -3.8437653q-12.484375 -3.84375 -22.40625 -10.875l9.765625 -19.046875q1.4375 1.4375 5.1875 3.765625q3.765625 2.3125 8.890625 4.640625q5.125 2.3125 11.359375 3.921875q6.234375 1.59375 12.796875 1.59375q18.25 0 18.25 -11.671875q0 -3.6875 -2.09375 -6.25q-2.078125 -2.5625 -5.921875 -4.46875q-3.828125 -1.921875 -9.265625 -3.515625q-5.4375 -1.609375 -12.171875 -3.53125q-8.15625 -2.234375 -14.15625 -4.875q-6.0 -2.640625 -10.0 -6.234375q-4.0 -3.609375 -6.0 -8.328125q-2.0 -4.71875 -2.0 -11.28125q0 -8.640625 3.203125 -15.359375q3.203125 -6.71875 8.875 -11.203125q5.6875 -4.484375 13.203125 -6.796875q7.515625 -2.328125 16.15625 -2.328125q12.0 0 22.078125 3.765625q10.09375 3.765625 17.609375 8.875l-9.765625 17.921875z" fill-rule="nonzero"/><path fill="#000000" fill-opacity="0.0" d="m494.73752 301.8321l859.9055 0l0 110.86615l-859.9055 0z" fill-rule="evenodd"/><path fill="#ffffff" d="m532.6594 333.68457l11.515625 0l7.25 21.3125l7.25 -21.3125l11.609375 0l-10.96875 29.28125l8.15625 20.578125l18.21875 -50.03125l13.59375 0l-26.1875 64.359375l-10.53125 0l-11.140625 -27.015625l-11.15625 27.015625l-10.515625 0l-26.015656 -64.359375l13.4219055 0l18.3125 50.03125l7.96875 -20.578125l-10.78125 -29.28125zm117.945435 53.21875l0 10.96875l-44.703125 0l0 -64.359375l43.890625 0l0 10.96875l-31.375 0l0 15.5l27.109375 0l0 10.15625l-27.109375 0l0 16.765625l32.1875 0zm61.640625 -5.625q0 4.078125 -1.640625 7.171875q-1.625 3.078125 -4.484375 5.171875q-2.84375 2.078125 -6.609375 3.171875q-3.765625 1.078125 -8.03125 1.078125l-31.09375 0l0 -64.359375l34.453125 0q3.359375 0 6.078125 1.453125q2.71875 1.4375 4.625 3.75q1.90625 2.3125 2.9375 5.265625q1.046875 2.9375 1.046875 5.9375q0 4.703125 -2.359375 8.828125q-2.359375 4.125 -6.890625 6.125q5.53125 1.640625 8.75 5.859375q3.21875 4.203125 3.21875 10.546875zm-12.59375 -2.359375q0 -1.71875 -0.59375 -3.296875q-0.59375 -1.59375 -1.59375 -2.765625q-0.984375 -1.1875 -2.359375 -1.859375q-1.359375 -0.6875 -2.984375 -0.6875l-19.21875 0l0 16.953125l18.578125 0q1.734375 0 3.21875 -0.625q1.5 -0.640625 2.578125 -1.765625q1.09375 -1.140625 1.734375 -2.671875q0.640625 -1.546875 0.640625 -3.28125zm-26.75 -34.71875l0 16.234375l16.6875 0q3.171875 0 5.390625 -2.171875q2.21875 -2.1875 2.21875 -5.984375q0 -3.71875 -2.046875 -5.890625q-2.03125 -2.1875 -5.03125 -2.1875l-17.21875 0zm70.88818 53.671875l0 -64.359375l23.390625 0q7.890625 0 13.828125 2.53125q5.9375 2.53125 9.921875 6.890625q4.0 4.34375 5.984375 10.203125q2.0 5.84375 2.0 12.453125q0 7.34375 -2.21875 13.296875q-2.21875 5.9375 -6.390625 10.15625q-4.171875 4.203125 -10.03125 6.515625q-5.84375 2.3125 -13.09375 2.3125l-23.390625 0zm42.515625 -32.28125q0 -4.609375 -1.265625 -8.5q-1.265625 -3.90625 -3.71875 -6.71875q-2.4375 -2.8125 -6.03125 -4.34375q-3.578125 -1.546875 -8.109375 -1.546875l-10.875 0l0 42.421875l10.875 0q4.625 0 8.203125 -1.625q3.59375 -1.640625 5.984375 -4.484375q2.40625 -2.859375 3.671875 -6.75q1.265625 -3.90625 1.265625 -8.453125zm67.09741 21.3125l0 10.96875l-44.703125 0l0 -64.359375l43.890625 0l0 10.96875l-31.375 0l0 15.5l27.109375 0l0 10.15625l-27.109375 0l0 16.765625l32.1875 0zm16.406311 -53.390625l17.40625 48.671875l17.21875 -48.671875l13.15625 0l-25.125 64.359375l-10.515625 0l-25.28125 -64.359375l13.140625 0zm99.361755 53.390625l0 10.96875l-44.703125 0l0 -64.359375l43.890625 0l0 10.96875l-31.375 0l0 15.5l27.109375 0l0 10.15625l-27.109375 0l0 16.765625l32.1875 0zm9.781311 10.96875l0 -64.359375l12.515625 0l0 53.390625l32.81244 0l0 10.96875l-45.328064 0zm80.41205 0.453125q-7.0625 0 -12.828125 -2.765625q-5.75 -2.765625 -9.875 -7.34375q-4.125 -4.578125 -6.390625 -10.46875q-2.265625 -5.890625 -2.265625 -12.0625q0 -6.4375 2.390625 -12.328125q2.40625 -5.890625 6.625 -10.421875q4.21875 -4.53125 10.015625 -7.203125q5.8125 -2.671875 12.609375 -2.671875q6.984375 0 12.734375 2.859375q5.75 2.84375 9.828125 7.46875q4.09375 4.625 6.359375 10.515625q2.265625 5.890625 2.265625 11.96875q0 6.4375 -2.359375 12.28125q-2.359375 5.84375 -6.53125 10.34375q-4.171875 4.484375 -9.96875 7.15625q-5.796875 2.671875 -12.609375 2.671875zm-18.671875 -32.640625q0 4.171875 1.265625 8.078125q1.28125 3.890625 3.671875 6.890625q2.40625 2.984375 5.890625 4.796875q3.5 1.8125 7.9375 1.8125q4.53125 0 8.015625 -1.859375q3.5 -1.859375 5.90625 -4.9375q2.40625 -3.078125 3.625 -6.921875q1.21875 -3.859375 1.21875 -7.859375q0 -4.171875 -1.3125 -8.0625q-1.3125 -3.90625 -3.71875 -6.890625q-2.40625 -3.0 -5.890625 -4.765625q-3.484375 -1.765625 -7.84375 -1.765625q-4.53125 0 -8.0625 1.859375q-3.53125 1.859375 -5.890625 4.90625q-2.359375 3.03125 -3.59375 6.890625q-1.21875 3.84375 -1.21875 7.828125zm59.739258 32.1875l0 -64.359375l27.296875 0q4.4375 0 8.203125 1.859375q3.765625 1.84375 6.484375 4.890625q2.71875 3.03125 4.25 6.890625q1.546875 3.84375 1.546875 7.75q0 4.078125 -1.453125 7.9375q-1.453125 3.84375 -4.078125 6.84375q-2.625 2.984375 -6.34375 4.796875q-3.71875 1.8125 -8.15625 1.8125l-15.234375 0l0 21.578125l-12.515625 0zm12.515625 -32.546875l14.5 0q3.453125 0 5.765625 -2.8125q2.3125 -2.8125 2.3125 -7.609375q0 -2.453125 -0.734375 -4.390625q-0.71875 -1.953125 -1.90625 -3.3125q-1.171875 -1.359375 -2.765625 -2.03125q-1.578125 -0.6875 -3.203125 -0.6875l-13.96875 0l0 20.84375zm88.66638 21.578125l0 10.96875l-44.703125 0l0 -64.359375l43.890625 0l0 10.96875l-31.375 0l0 15.5l27.109375 0l0 10.15625l-27.109375 0l0 16.765625l32.1875 0zm9.78125 10.96875l0 -64.359375l28.46875 0q4.4375 0 8.203125 1.859375q3.765625 1.84375 6.484375 4.890625q2.71875 3.03125 4.25 6.890625q1.546875 3.84375 1.546875 7.75q0 6.25 -3.125 11.375q-3.125 5.125 -8.46875 7.390625l14.6875 24.203125l-14.0625 0l-13.140625 -21.578125l-12.328125 0l0 21.578125l-12.515625 0zm12.515625 -32.546875l15.6875 0q1.71875 0 3.203125 -0.8125q1.5 -0.8125 2.59375 -2.21875q1.09375 -1.40625 1.71875 -3.3125q0.640625 -1.90625 0.640625 -4.078125q0 -2.265625 -0.734375 -4.171875q-0.71875 -1.90625 -1.953125 -3.3125q-1.21875 -1.40625 -2.8125 -2.171875q-1.578125 -0.765625 -3.203125 -0.765625l-15.140625 0l0 20.84375z" fill-rule="nonzero"/></g></svg>