<?xml version="1.0" encoding="UTF-8" standalone="no"?>
<svg
   xmlns:dc="http://purl.org/dc/elements/1.1/"
   xmlns:cc="http://creativecommons.org/ns#"
   xmlns:rdf="http://www.w3.org/1999/02/22-rdf-syntax-ns#"
   xmlns:svg="http://www.w3.org/2000/svg"
   xmlns="http://www.w3.org/2000/svg"
   id="SVGRoot"
   version="1.1"
   viewBox="0 0 2000 500"
   height="500"
   width="2000">
  <defs
     id="defs1430">
    <mask
       id="mask4903"
       maskUnits="userSpaceOnUse">
      <g
         transform="matrix(0.99998117,0.00140494,-0.01411195,1.0000797,-19.65062,-46.907276)"
         id="g4931">
        <rect
           style="fill:#ffffff;fill-opacity:1;stroke-width:1.26331222"
           id="rect4905"
           width="1386.3075"
           height="169.78221"
           x="539.15082"
           y="116.67987"
           transform="matrix(0.99999901,-0.00140483,0.01411081,0.99990044,0,0)" />
        <g
           aria-label="TIAGO MORAES"
           style="font-style:normal;font-weight:normal;font-size:40px;line-height:1.25;font-family:sans-serif;letter-spacing:0px;word-spacing:0px;fill:#000000;fill-opacity:1;stroke:none"
           id="g4929">
          <path
             d="m 669.07874,162.6823 h -38.896 v 96.624 h -24.288 v -96.624 h -39.072 v -19.536 h 102.256 z"
             style="font-style:normal;font-variant:normal;font-weight:600;font-stretch:normal;font-size:176px;font-family:'Work Sans';-inkscape-font-specification:'Work Sans Semi-Bold';fill:#000000"
             id="path4907" />
          <path
             d="m 713.21349,259.3063 h -24.288 v -116.16 h 24.288 z"
             style="font-style:normal;font-variant:normal;font-weight:600;font-stretch:normal;font-size:176px;font-family:'Work Sans';-inkscape-font-specification:'Work Sans Semi-Bold';fill:#000000"
             id="path4909" />
          <path
             d="m 809.58174,230.9703 h -44.704 l -9.504,28.336 h -24.816 l 42.416,-116.16 h 29.04 l 42.416,116.16 h -25.168 z m -5.984,-17.952 -10.912,-32.736 -5.28,-17.6 h -0.352 l -4.928,17.248 -11.264,33.088 z"
             style="font-style:normal;font-variant:normal;font-weight:600;font-stretch:normal;font-size:176px;font-family:'Work Sans';-inkscape-font-specification:'Work Sans Semi-Bold';fill:#000000"
             id="path4911" />
          <path
             d="m 958.37874,197.8823 v 61.424 h -17.776 l -0.528,-13.904 q -10.56,15.664 -34.32,15.664 -16.016,0 -28.16,-7.04 -12.144,-7.04 -19.008,-20.416 -6.688,-13.552 -6.688,-32.208 0,-18.48 6.864,-32.032 7.04,-13.552 19.712,-20.768 12.848,-7.216 29.92,-7.216 18.832,0 30.624,6.864 11.968,6.864 18.832,21.648 l -22.352,9.68 q -2.64,-8.976 -9.68,-13.552 -6.864,-4.752 -16.72,-4.752 -15.136,0 -23.584,10.384 -8.448,10.384 -8.448,29.568 0,19.888 8.272,30.096 8.272,10.208 24.288,10.208 12.32,0 20.064,-5.808 7.744,-5.984 7.744,-17.248 v -2.64 h -33.968 v -17.952 z"
             style="font-style:normal;font-variant:normal;font-weight:600;font-stretch:normal;font-size:176px;font-family:'Work Sans';-inkscape-font-specification:'Work Sans Semi-Bold';fill:#000000"
             id="path4913" />
          <path
             d="m 1035.0542,141.3863 q 17.072,0 29.568,7.216 12.672,7.216 19.36,20.768 6.864,13.376 6.864,31.856 0,18.48 -6.864,32.032 -6.688,13.376 -19.36,20.592 -12.496,7.216 -29.568,7.216 -17.072,0 -29.744,-7.216 -12.67196,-7.216 -19.53596,-20.592 -6.688,-13.552 -6.688,-32.032 0,-18.48 6.688,-31.856 6.864,-13.552 19.53596,-20.768 12.672,-7.216 29.744,-7.216 z m 0,19.888 q -14.784,0 -22.88,10.384 -7.92,10.208 -7.92,29.568 0,19.36 7.92,29.744 8.096,10.208 22.88,10.208 14.608,0 22.528,-10.208 8.096,-10.384 8.096,-29.744 0,-19.36 -8.096,-29.568 -7.92,-10.384 -22.528,-10.384 z"
             style="font-style:normal;font-variant:normal;font-weight:600;font-stretch:normal;font-size:176px;font-family:'Work Sans';-inkscape-font-specification:'Work Sans Semi-Bold';fill:#000000"
             id="path4915" />
          <path
             d="m 1295.5122,259.3063 h -21.824 v -60.544 l 1.056,-33.968 h -0.352 l -32.208,94.512 h -19.888 l -32.032,-94.512 h -0.352 l 1.232,33.968 v 60.544 h -22 v -116.16 h 35.2 l 20.944,63.36 7.392,26.224 h 0.352 l 7.568,-26.048 20.768,-63.536 h 34.144 z"
             style="font-style:normal;font-variant:normal;font-weight:600;font-stretch:normal;font-size:176px;font-family:'Work Sans';-inkscape-font-specification:'Work Sans Semi-Bold';fill:#000000"
             id="path4917" />
          <path
             d="m 1376.0542,141.3863 q 17.072,0 29.568,7.216 12.672,7.216 19.36,20.768 6.864,13.376 6.864,31.856 0,18.48 -6.864,32.032 -6.688,13.376 -19.36,20.592 -12.496,7.216 -29.568,7.216 -17.072,0 -29.744,-7.216 -12.672,-7.216 -19.536,-20.592 -6.688,-13.552 -6.688,-32.032 0,-18.48 6.688,-31.856 6.864,-13.552 19.536,-20.768 12.672,-7.216 29.744,-7.216 z m 0,19.888 q -14.784,0 -22.88,10.384 -7.92,10.208 -7.92,29.568 0,19.36 7.92,29.744 8.096,10.208 22.88,10.208 14.608,0 22.528,-10.208 8.096,-10.384 8.096,-29.744 0,-19.36 -8.096,-29.568 -7.92,-10.384 -22.528,-10.384 z"
             style="font-style:normal;font-variant:normal;font-weight:600;font-stretch:normal;font-size:176px;font-family:'Work Sans';-inkscape-font-specification:'Work Sans Semi-Bold';fill:#000000"
             id="path4919" />
          <path
             d="m 1501.9355,214.7783 h -21.824 v 44.528 h -23.936 v -116.16 h 51.216 q 19.888,0 30.976,9.504 11.264,9.328 11.264,26.4 0,12.496 -6.16,20.944 -6.16,8.448 -17.6,12.144 l 30.624,47.168 h -27.28 z m -21.824,-18.48 h 24.112 q 10.56,0 15.488,-4.048 5.104,-4.224 5.104,-12.848 0,-8.624 -5.104,-12.672 -4.928,-4.224 -15.488,-4.224 h -24.112 z"
             style="font-style:normal;font-variant:normal;font-weight:600;font-stretch:normal;font-size:176px;font-family:'Work Sans';-inkscape-font-specification:'Work Sans Semi-Bold';fill:#000000"
             id="path4921" />
          <path
             d="m 1641.8005,230.9703 h -44.704 l -9.504,28.336 h -24.816 l 42.416,-116.16 h 29.04 l 42.416,116.16 h -25.168 z m -5.984,-17.952 -10.912,-32.736 -5.28,-17.6 h -0.352 l -4.928,17.248 -11.264,33.088 z"
             style="font-style:normal;font-variant:normal;font-weight:600;font-stretch:normal;font-size:176px;font-family:'Work Sans';-inkscape-font-specification:'Work Sans Semi-Bold';fill:#000000"
             id="path4923" />
          <path
             d="m 1783.6345,239.7703 v 19.536 h -89.584 v -116.16 h 87.12 v 19.536 h -62.832 v 28.864 h 49.456 v 18.656 h -49.456 v 29.568 z"
             style="font-style:normal;font-variant:normal;font-weight:600;font-stretch:normal;font-size:176px;font-family:'Work Sans';-inkscape-font-specification:'Work Sans Semi-Bold';fill:#000000"
             id="path4925" />
          <path
             d="m 1847.8415,141.3863 q 16.192,0 27.808,5.456 11.616,5.28 20.416,16.896 l -16.72,16.368 q -4.576,-9.504 -12.144,-14.08 -7.568,-4.752 -19.184,-4.752 -10.56,0 -16.368,4.048 -5.632,3.872 -5.632,10.384 0,5.984 5.808,9.504 5.808,3.52 20.944,6.16 15.84,2.992 25.168,7.392 9.328,4.4 13.552,11.088 4.4,6.512 4.4,16.368 0,10.736 -6.16,18.656 -5.984,7.744 -16.896,11.968 -10.736,4.224 -24.64,4.224 -19.184,0 -31.504,-5.28 -12.144,-5.456 -19.712,-16.368 l 14.432,-17.248 q 6.512,10.736 14.96,14.96 8.448,4.048 20.944,4.048 11.264,0 17.072,-3.52 5.984,-3.52 5.984,-10.032 0,-4.752 -5.632,-7.92 -5.456,-3.168 -19.712,-5.984 -16.368,-3.344 -26.224,-7.92 -9.68,-4.576 -14.08,-11.264 -4.4,-6.688 -4.4,-16.544 0,-10.384 5.632,-18.656 5.632,-8.448 16.368,-13.2 10.912,-4.752 25.52,-4.752 z"
             style="font-style:normal;font-variant:normal;font-weight:600;font-stretch:normal;font-size:176px;font-family:'Work Sans';-inkscape-font-specification:'Work Sans Semi-Bold';fill:#000000"
             id="path4927" />
        </g>
      </g>
    </mask>
    <mask
       id="mask4960"
       maskUnits="userSpaceOnUse">
      <g
         transform="translate(-11.641484,-3.7603023)"
         id="g4974">
        <a
           style="fill:#ffffff"
           id="a4964"
           transform="translate(11.526599,3.7809941)">
          <circle
             style="fill:#ffffff;fill-opacity:1"
             id="circle4962"
             cx="270.70312"
             cy="250.56755"
             r="220" />
        </a>
        <g
           aria-label="T"
           style="font-style:normal;font-weight:normal;font-size:40px;line-height:1.25;font-family:sans-serif;letter-spacing:0px;word-spacing:0px;fill:#000000;fill-opacity:1;stroke:none"
           id="g4968">
          <path
             d="m 260.50776,147.14573 h -85.3125 V 383.76031 H 140.37755 V 147.14573 H 55.247336 V 118.34364 H 260.50776 Z"
             style="font-style:normal;font-variant:normal;font-weight:normal;font-stretch:normal;font-size:373.33334351px;font-family:Roboto;-inkscape-font-specification:Roboto;fill:#000000"
             id="path4966" />
        </g>
        <g
           aria-label="M"
           style="font-style:normal;font-weight:normal;font-size:40px;line-height:1.25;font-family:sans-serif;letter-spacing:0px;word-spacing:0px;fill:#000000;fill-opacity:1;stroke:none"
           id="g4972">
          <path
             d="m 290.42772,118.34364 86.77084,216.56251 86.77083,-216.56251 h 45.39063 v 265.41667 h -35 V 280.40094 l 3.28125,-111.56251 -87.13542,214.92188 h -26.79688 l -86.95312,-214.375 3.46354,111.01563 v 103.35937 h -35 V 118.34364 Z"
             style="font-style:normal;font-variant:normal;font-weight:normal;font-stretch:normal;font-size:373.33334351px;font-family:Roboto;-inkscape-font-specification:Roboto;fill:#000000"
             id="path4970" />
        </g>
      </g>
    </mask>
  </defs>
  <metadata
     id="metadata1433">
    <rdf:RDF>
      <cc:Work
         rdf:about="">
        <dc:format>image/svg+xml</dc:format>
        <dc:type
           rdf:resource="http://purl.org/dc/dcmitype/StillImage" />
        <dc:title></dc:title>
      </cc:Work>
    </rdf:RDF>
  </metadata>
  <g
     id="layer2" />
  <g
     id="layer1">
    <a
       transform="translate(11.641484,3.7603023)"
       mask="url(#mask4960)"
       id="a2152">
      <g
         id="g1127">
        <path
           style="fill:#000000;fill-opacity:1"
           d="m 490.70312,250.56755 a 220,220 0 0 1 -220,220 220,220 0 0 1 -219.999995,-220 220,220 0 0 1 219.999995,-219.999999 220,220 0 0 1 220,219.999999 z"
           id="path1989" />
      </g>
    </a>
    <flowRoot
       style="font-style:normal;font-weight:normal;font-size:40px;line-height:1.25;font-family:sans-serif;letter-spacing:0px;word-spacing:0px;fill:#000000;fill-opacity:1;stroke:none"
       id="flowRoot1991"
       xml:space="preserve"><flowRegion
         id="flowRegion1993"><rect
           y="157.64706"
           x="584.70587"
           height="274.11765"
           width="158.82353"
           id="rect1995" /></flowRegion><flowPara
         style="font-size:266.66665649px"
         id="flowPara1997">T</flowPara></flowRoot>    <path
       id="rect851-6"
       d="M 519.50018,69.772583 H 1905.8077 V 239.55479 H 519.50018 Z"
       mask="url(#mask4903)"
       style="fill:#000000;fill-opacity:1;stroke-width:1.26331222"
       transform="matrix(0.99999901,-0.00140483,0.01411081,0.99990044,20.3125,46.875)" />
    <g
       transform="translate(-57.083263,-494.76531)"
       id="g906" />
    <g
       id="text875"
       style="font-style:normal;font-variant:normal;font-weight:normal;font-stretch:normal;font-size:40px;line-height:1.25;font-family:'Work Sans';-inkscape-font-specification:'Work Sans';letter-spacing:0px;word-spacing:0px;fill:#000000;fill-opacity:1;stroke:none"
       aria-label="WEB DEVELOPER">
      <path
         id="path1038"
         style="font-style:normal;font-variant:normal;font-weight:600;font-stretch:normal;font-size:106.66666412px;font-family:'Work Sans';-inkscape-font-specification:'Work Sans Semi-Bold'"
         d="m 592.59167,378.125 h -16.96 l -20.48,-70.4 H 571.045 l 13.65333,58.77333 14.08,-58.77333 h 14.08 L 627.15166,366.49833 640.805,307.725 h 15.14666 l -20.48,70.4 h -16.53333 l -9.81333,-38.4 -3.30667,-16.64 H 605.605 l -3.30667,16.64 z" />
      <path
         id="path1040"
         style="font-style:normal;font-variant:normal;font-weight:600;font-stretch:normal;font-size:106.66666412px;font-family:'Work Sans';-inkscape-font-specification:'Work Sans Semi-Bold'"
         d="m 721.59167,366.285 v 11.84 h -54.29334 v -70.4 h 52.8 v 11.84 h -38.08 v 17.49333 h 29.97334 V 348.365 h -29.97334 v 17.92 z" />
      <path
         id="path1042"
         style="font-style:normal;font-variant:normal;font-weight:600;font-stretch:normal;font-size:106.66666412px;font-family:'Work Sans';-inkscape-font-specification:'Work Sans Semi-Bold'"
         d="M 734.79833,307.725 H 765.625 q 12.58667,0 18.77333,5.01333 6.18667,4.90667 6.18667,14.18667 0,5.86667 -3.52,10.24 -3.52,4.26667 -9.92,5.33333 v 0.10667 q 7.25333,1.06667 11.2,5.54667 4.05333,4.37333 4.05333,10.66666 0,9.17334 -6.61333,14.29334 -6.61333,5.01333 -19.09333,5.01333 h -31.89334 z m 28.8,29.54667 q 11.73334,0 11.73334,-9.06667 0,-9.06667 -11.73334,-9.06667 h -14.50666 v 18.13334 z m 1.81334,29.76 q 5.86666,0 8.74666,-2.34667 2.98667,-2.45333 2.98667,-6.93333 0,-4.48 -2.98667,-6.82667 -2.88,-2.34667 -8.74666,-2.34667 h -16.32 v 18.45334 z" />
      <path
         id="path1044"
         style="font-style:normal;font-variant:normal;font-weight:600;font-stretch:normal;font-size:106.66666412px;font-family:'Work Sans';-inkscape-font-specification:'Work Sans Semi-Bold'"
         d="m 866.37333,307.725 q 16.53334,0 25.6,9.17333 9.06667,9.17334 9.06667,26.02667 0,16.85333 -9.06667,26.02667 -9.06666,9.17333 -25.6,9.17333 h -27.2 v -70.4 z m -0.74666,58.66667 q 10.02666,0 15.04,-5.97334 5.12,-6.08 5.12,-17.49333 0,-11.41333 -5.12,-17.38667 -5.01334,-6.08 -15.04,-6.08 h -11.73334 v 46.93334 z" />
      <path
         id="path1046"
         style="font-style:normal;font-variant:normal;font-weight:600;font-stretch:normal;font-size:106.66666412px;font-family:'Work Sans';-inkscape-font-specification:'Work Sans Semi-Bold'"
         d="m 970.13332,366.285 v 11.84 h -54.29333 v -70.4 h 52.8 v 11.84 h -38.08 v 17.49333 h 29.97333 V 348.365 h -29.97333 v 17.92 z" />
      <path
         id="path1048"
         style="font-style:normal;font-variant:normal;font-weight:600;font-stretch:normal;font-size:106.66666412px;font-family:'Work Sans';-inkscape-font-specification:'Work Sans Semi-Bold'"
         d="m 1018.54,378.125 h -17.1733 l -25.70671,-70.4 h 15.57333 l 14.82668,44.8 4.0533,13.86667 3.9467,-13.76 14.9333,-44.90667 h 15.1467 z" />
      <path
         id="path1050"
         style="font-style:normal;font-variant:normal;font-weight:600;font-stretch:normal;font-size:106.66666412px;font-family:'Work Sans';-inkscape-font-specification:'Work Sans Semi-Bold'"
         d="m 1109.0917,366.285 v 11.84 h -54.2934 v -70.4 h 52.8 v 11.84 h -38.08 v 17.49333 h 29.9734 V 348.365 h -29.9734 v 17.92 z" />
      <path
         id="path1052"
         style="font-style:normal;font-variant:normal;font-weight:600;font-stretch:normal;font-size:106.66666412px;font-family:'Work Sans';-inkscape-font-specification:'Work Sans Semi-Bold'"
         d="m 1174.1383,366.285 v 11.84 h -51.84 v -70.4 h 14.72 v 58.56 z" />
      <path
         id="path1054"
         style="font-style:normal;font-variant:normal;font-weight:600;font-stretch:normal;font-size:106.66666412px;font-family:'Work Sans';-inkscape-font-specification:'Work Sans Semi-Bold'"
         d="m 1214.5733,306.65834 q 10.3467,0 17.92,4.37333 7.68,4.37333 11.7334,12.58666 4.16,8.10667 4.16,19.30667 0,11.2 -4.16,19.41333 -4.0534,8.10667 -11.7334,12.48 -7.5733,4.37334 -17.92,4.37334 -10.3466,0 -18.0266,-4.37334 -7.68,-4.37333 -11.84,-12.48 -4.0534,-8.21333 -4.0534,-19.41333 0,-11.2 4.0534,-19.30667 4.16,-8.21333 11.84,-12.58666 7.68,-4.37333 18.0266,-4.37333 z m 0,12.05333 q -8.96,0 -13.8666,6.29333 -4.8,6.18667 -4.8,17.92 0,11.73333 4.8,18.02667 4.9066,6.18666 13.8666,6.18666 8.8534,0 13.6534,-6.18666 4.9066,-6.29334 4.9066,-18.02667 0,-11.73333 -4.9066,-17.92 -4.8,-6.29333 -13.6534,-6.29333 z" />
      <path
         id="path1056"
         style="font-style:normal;font-variant:normal;font-weight:600;font-stretch:normal;font-size:106.66666412px;font-family:'Work Sans';-inkscape-font-specification:'Work Sans Semi-Bold'"
         d="m 1292.6783,307.725 q 12.2667,0 19.0933,5.97333 6.8267,5.86667 6.8267,16.64 0,10.45334 -6.8267,16.32 -6.8266,5.86667 -19.0933,5.86667 h -14.8267 v 25.6 h -14.72 v -70.4 z m -2.24,33.38667 q 6.8267,0 10.0267,-2.66667 3.2,-2.77333 3.2,-8.21333 0,-5.44 -3.2,-8.10667 -3.2,-2.66667 -10.0267,-2.66667 h -12.5867 v 21.65334 z" />
      <path
         id="path1058"
         style="font-style:normal;font-variant:normal;font-weight:600;font-stretch:normal;font-size:106.66666412px;font-family:'Work Sans';-inkscape-font-specification:'Work Sans Semi-Bold'"
         d="m 1386.3833,366.285 v 11.84 H 1332.09 v -70.4 h 52.8 v 11.84 h -38.08 v 17.49333 h 29.9733 V 348.365 H 1346.81 v 17.92 z" />
      <path
         id="path1060"
         style="font-style:normal;font-variant:normal;font-weight:600;font-stretch:normal;font-size:106.66666412px;font-family:'Work Sans';-inkscape-font-specification:'Work Sans Semi-Bold'"
         d="m 1427.3233,351.13833 h -13.2267 V 378.125 H 1399.59 v -70.4 h 31.04 q 12.0533,0 18.7733,5.76 6.8267,5.65333 6.8267,16 0,7.57333 -3.7334,12.69333 -3.7333,5.12 -10.6666,7.36 l 18.56,28.58667 h -16.5334 z m -13.2267,-11.2 h 14.6134 q 6.4,0 9.3866,-2.45333 3.0934,-2.56 3.0934,-7.78667 0,-5.22666 -3.0934,-7.68 -2.9866,-2.56 -9.3866,-2.56 h -14.6134 z" />
    </g>
  </g>
</svg>
